<?xml version="1.0" encoding="UTF-8"?>
<svg version="1.1" xmlns="http://www.w3.org/2000/svg" width="512" height="512">
<path d="M0 0 C17.93203691 3.69579138 34.38309919 11.55464189 48.42578125 23.3125 C49.14121094 23.88226562 49.85664063 24.45203125 50.59375 25.0390625 C62.48678564 34.93238418 70.30657245 47.77721414 77.42578125 61.3125 C77.85246094 60.47332031 78.27914062 59.63414063 78.71875 58.76953125 C82.87038221 50.73242626 87.3487097 42.91526407 92.05078125 35.1875 C92.85745239 33.83748901 92.85745239 33.83748901 93.68041992 32.46020508 C96.75757924 27.46364353 99.53977956 23.62389811 104.42578125 20.3125 C108.3415123 19.76292371 110.58040267 19.92823701 114.17578125 21.5625 C117.71276694 24.31348887 119.20381055 25.92518313 119.92578125 30.4375 C118.94013705 38.07624253 114.55040625 44.14782138 110.54443359 50.57592773 C99.97651274 67.55274634 93.25224531 83.62757739 89.42578125 103.3125 C93.40614197 102.29628735 97.3850154 101.27438259 101.36328125 100.25 C102.58152588 99.93635498 103.79977051 99.62270996 105.05493164 99.29956055 C113.19323372 97.18963038 121.28328602 94.94671372 129.36328125 92.625 C164.57091756 82.5811378 205.92732851 77.82049624 239.49609375 96.07421875 C242.28962156 97.86682668 243.90502457 99.34011194 245.42578125 102.3125 C246.34403623 108.74028484 246.34403623 108.74028484 244.3671875 112.125 C242.60021284 114.30619127 240.9527381 116.04902157 238.42578125 117.3125 C236.42678062 117.41709887 234.42642631 117.49644097 232.42578125 117.5625 C226.5972865 117.95020475 222.49379094 119.27363732 217.44921875 122.15625 C215.42578125 123.3125 215.42578125 123.3125 212.42578125 124.3125 C211.31944883 126.17577162 211.31944883 126.17577162 210.42578125 128.3125 C210.07257813 128.86808594 209.719375 129.42367187 209.35546875 129.99609375 C205.65393142 136.15161324 205.65950023 142.2926612 206.42578125 149.3125 C207.05544205 151.61268097 207.05544205 151.61268097 207.92578125 153.625 C209.76819898 158.15427693 210.05054489 160.47058179 209.42578125 165.3125 C206.75986228 169.84456226 204.28336364 171.51599497 199.55078125 173.6875 C192.85479875 176.81096129 188.38455465 181.48748537 185.48828125 188.3125 C183.18939827 195.63751223 184.10393728 202.48957587 187.42578125 209.3125 C191.52969012 215.87635425 196.74737263 218.86750136 203.75390625 221.890625 C207.77128335 224.02852743 209.04919814 226.30167166 210.61328125 230.5 C212.09834929 237.46839618 212.23170478 242.11922695 208.92578125 248.5625 C205.55429514 255.41113132 205.0797563 262.27117674 207.0546875 269.66796875 C209.90736165 276.28156756 215.48952679 280.51479318 221.48828125 284.1875 C226.311844 286.04529911 231.79683469 285.78197797 236.90234375 285.90625 C240.60472557 286.33313216 242.48521896 287.07488235 245.42578125 289.3125 C247.61735847 292.7684487 248.68771556 296.21422366 249.73828125 300.125 C252.25712973 308.71491917 256.58696449 314.54315666 264.2734375 319.16015625 C272.48201925 323.55495047 280.08798002 323.00893823 288.92578125 320.8125 C294.41026672 319.46724885 299.79638495 318.15936482 305.42578125 319.3125 C308.25002413 321.50272918 309.84086728 323.14267207 311.42578125 326.3125 C311.81014348 332.48252521 310.83539248 337.30531443 308.86328125 343.125 C308.58935547 343.95338379 308.31542969 344.78176758 308.03320312 345.63525391 C307.45713675 347.36051391 306.87423933 349.08350745 306.28466797 350.80419922 C305.74117267 352.39142796 305.20534338 353.98132032 304.68017578 355.57470703 C295.46570869 383.49335375 281.07657758 409.87067111 263.42578125 433.3125 C262.77657715 434.1780249 262.77657715 434.1780249 262.11425781 435.06103516 C255.39003263 443.96854602 248.14896686 452.26101744 240.42578125 460.3125 C239.64332031 461.13621094 238.86085938 461.95992188 238.0546875 462.80859375 C212.87993499 488.70134277 175.50614844 510.90325742 138.55859375 511.55078125 C135.88867416 511.58746513 133.22074044 511.61538619 130.55078125 511.625 C129.85803101 511.62761841 129.16528076 511.63023682 128.45153809 511.63293457 C114.23115131 511.63869681 102.01524546 509.45733363 88.72265625 504.14453125 C78.67318155 500.50416031 69.14671507 502.2027999 59.36328125 505.6875 C47.28985145 509.86774452 36.76071189 511.70532404 23.92578125 511.6875 C22.93333405 511.68668427 22.93333405 511.68668427 21.9208374 511.68585205 C10.96585455 511.64453494 0.86368864 510.69503517 -9.57421875 507.3125 C-10.2398584 507.10351074 -10.90549805 506.89452148 -11.59130859 506.67919922 C-41.55050456 497.03940008 -67.82936616 476.51598105 -87.328125 452.1171875 C-88.79108366 450.29039738 -90.2771883 448.48183051 -91.7890625 446.6953125 C-98.03395434 439.2980241 -103.39398396 431.47340064 -108.57421875 423.3125 C-108.95046387 422.71985352 -109.32670898 422.12720703 -109.71435547 421.51660156 C-129.82827803 389.52969249 -143.50416277 354.6180201 -151.98535156 317.85986328 C-152.4742498 315.74495276 -152.98614448 313.63537381 -153.50390625 311.52734375 C-166.20348265 255.55756118 -161.92353941 184.77670031 -131.06152344 135.53344727 C-115.11558387 110.93806257 -91.283272 93.79508131 -62.53125 87.37109375 C-58.89150025 86.60792755 -55.24186014 85.9293306 -51.57421875 85.3125 C-50.54941406 85.12429687 -49.52460938 84.93609375 -48.46875 84.7421875 C-42.73236409 84.10928635 -37.0281646 84.16866566 -31.26171875 84.1875 C-30.08931641 84.18363281 -28.91691406 84.17976563 -27.70898438 84.17578125 C-20.93470671 84.18334605 -14.29740389 84.46789325 -7.57421875 85.3125 C-8.25701904 84.40818237 -8.25701904 84.40818237 -8.95361328 83.4855957 C-23.99746756 63.31305173 -30.64854569 39.32572388 -30.94921875 14.375 C-30.96315674 13.63596436 -30.97709473 12.89692871 -30.99145508 12.13549805 C-30.95168546 7.69214728 -30.33051708 4.82580985 -27.57421875 1.3125 C-20.56104337 -3.36295025 -8.04123609 -1.39076309 0 0 Z " fill="#D74646" transform="translate(179.57421875,0.6875)"/>
<path d="M0 0 C17.93203691 3.69579138 34.38309919 11.55464189 48.42578125 23.3125 C49.14121094 23.88226562 49.85664063 24.45203125 50.59375 25.0390625 C62.48678564 34.93238418 70.30657245 47.77721414 77.42578125 61.3125 C77.85246094 60.47332031 78.27914062 59.63414063 78.71875 58.76953125 C82.87038221 50.73242626 87.3487097 42.91526407 92.05078125 35.1875 C92.85745239 33.83748901 92.85745239 33.83748901 93.68041992 32.46020508 C96.75757924 27.46364353 99.53977956 23.62389811 104.42578125 20.3125 C108.3415123 19.76292371 110.58040267 19.92823701 114.17578125 21.5625 C117.71276694 24.31348887 119.20381055 25.92518313 119.92578125 30.4375 C118.94013705 38.07624253 114.55040625 44.14782138 110.54443359 50.57592773 C99.97651274 67.55274634 93.25224531 83.62757739 89.42578125 103.3125 C93.40614197 102.29628735 97.3850154 101.27438259 101.36328125 100.25 C102.58152588 99.93635498 103.79977051 99.62270996 105.05493164 99.29956055 C113.19323372 97.18963038 121.28328602 94.94671372 129.36328125 92.625 C164.57091756 82.5811378 205.92732851 77.82049624 239.49609375 96.07421875 C242.28962156 97.86682668 243.90502457 99.34011194 245.42578125 102.3125 C246.34403623 108.74028484 246.34403623 108.74028484 244.3671875 112.125 C242.60021284 114.30619127 240.9527381 116.04902157 238.42578125 117.3125 C236.42678062 117.41709887 234.42642631 117.49644097 232.42578125 117.5625 C226.5972865 117.95020475 222.49379094 119.27363732 217.44921875 122.15625 C215.42578125 123.3125 215.42578125 123.3125 212.42578125 124.3125 C211.31944883 126.17577162 211.31944883 126.17577162 210.42578125 128.3125 C210.07257813 128.86808594 209.719375 129.42367187 209.35546875 129.99609375 C205.65393142 136.15161324 205.65950023 142.2926612 206.42578125 149.3125 C207.05544205 151.61268097 207.05544205 151.61268097 207.92578125 153.625 C209.76819898 158.15427693 210.05054489 160.47058179 209.42578125 165.3125 C206.75986228 169.84456226 204.28336364 171.51599497 199.55078125 173.6875 C192.85479875 176.81096129 188.38455465 181.48748537 185.48828125 188.3125 C183.18939827 195.63751223 184.10393728 202.48957587 187.42578125 209.3125 C191.52969012 215.87635425 196.74737263 218.86750136 203.75390625 221.890625 C207.77128335 224.02852743 209.04919814 226.30167166 210.61328125 230.5 C212.09834929 237.46839618 212.23170478 242.11922695 208.92578125 248.5625 C205.55429514 255.41113132 205.0797563 262.27117674 207.0546875 269.66796875 C209.90736165 276.28156756 215.48952679 280.51479318 221.48828125 284.1875 C226.311844 286.04529911 231.79683469 285.78197797 236.90234375 285.90625 C240.60472557 286.33313216 242.48521896 287.07488235 245.42578125 289.3125 C247.61735847 292.7684487 248.68771556 296.21422366 249.73828125 300.125 C252.25712973 308.71491917 256.58696449 314.54315666 264.2734375 319.16015625 C272.48201925 323.55495047 280.08798002 323.00893823 288.92578125 320.8125 C294.41026672 319.46724885 299.79638495 318.15936482 305.42578125 319.3125 C308.25002413 321.50272918 309.84086728 323.14267207 311.42578125 326.3125 C311.81014348 332.48252521 310.83539248 337.30531443 308.86328125 343.125 C308.58935547 343.95338379 308.31542969 344.78176758 308.03320312 345.63525391 C307.45713675 347.36051391 306.87423933 349.08350745 306.28466797 350.80419922 C305.74117267 352.39142796 305.20534338 353.98132032 304.68017578 355.57470703 C295.46570869 383.49335375 281.07657758 409.87067111 263.42578125 433.3125 C262.77657715 434.1780249 262.77657715 434.1780249 262.11425781 435.06103516 C255.39003263 443.96854602 248.14896686 452.26101744 240.42578125 460.3125 C239.64332031 461.13621094 238.86085938 461.95992188 238.0546875 462.80859375 C212.87993499 488.70134277 175.50614844 510.90325742 138.55859375 511.55078125 C135.88867416 511.58746513 133.22074044 511.61538619 130.55078125 511.625 C129.85803101 511.62761841 129.16528076 511.63023682 128.45153809 511.63293457 C114.23115131 511.63869681 102.01524546 509.45733363 88.72265625 504.14453125 C78.67318155 500.50416031 69.14671507 502.2027999 59.36328125 505.6875 C47.28985145 509.86774452 36.76071189 511.70532404 23.92578125 511.6875 C22.93333405 511.68668427 22.93333405 511.68668427 21.9208374 511.68585205 C10.96585455 511.64453494 0.86368864 510.69503517 -9.57421875 507.3125 C-10.2398584 507.10351074 -10.90549805 506.89452148 -11.59130859 506.67919922 C-41.55050456 497.03940008 -67.82936616 476.51598105 -87.328125 452.1171875 C-88.79108366 450.29039738 -90.2771883 448.48183051 -91.7890625 446.6953125 C-98.03395434 439.2980241 -103.39398396 431.47340064 -108.57421875 423.3125 C-108.95046387 422.71985352 -109.32670898 422.12720703 -109.71435547 421.51660156 C-129.82827803 389.52969249 -143.50416277 354.6180201 -151.98535156 317.85986328 C-152.4742498 315.74495276 -152.98614448 313.63537381 -153.50390625 311.52734375 C-166.20348265 255.55756118 -161.92353941 184.77670031 -131.06152344 135.53344727 C-115.11558387 110.93806257 -91.283272 93.79508131 -62.53125 87.37109375 C-58.89150025 86.60792755 -55.24186014 85.9293306 -51.57421875 85.3125 C-50.54941406 85.12429687 -49.52460938 84.93609375 -48.46875 84.7421875 C-42.73236409 84.10928635 -37.0281646 84.16866566 -31.26171875 84.1875 C-30.08931641 84.18363281 -28.91691406 84.17976563 -27.70898438 84.17578125 C-20.93470671 84.18334605 -14.29740389 84.46789325 -7.57421875 85.3125 C-8.25701904 84.40818237 -8.25701904 84.40818237 -8.95361328 83.4855957 C-23.99746756 63.31305173 -30.64854569 39.32572388 -30.94921875 14.375 C-30.96315674 13.63596436 -30.97709473 12.89692871 -30.99145508 12.13549805 C-30.95168546 7.69214728 -30.33051708 4.82580985 -27.57421875 1.3125 C-20.56104337 -3.36295025 -8.04123609 -1.39076309 0 0 Z M-76.57421875 115.3125 C-77.33734375 115.67988281 -78.10046875 116.04726562 -78.88671875 116.42578125 C-102.69249226 128.79628141 -117.26282781 150.43665274 -125.57421875 175.3125 C-125.9196875 176.3128125 -126.26515625 177.313125 -126.62109375 178.34375 C-127.93793086 182.44537378 -128.89613755 186.61156729 -129.890625 190.80078125 C-130.57421875 193.3125 -130.57421875 193.3125 -131.57421875 194.3125 C-132.10868976 197.06120806 -132.57895925 199.79727776 -133.01171875 202.5625 C-133.13353516 203.28824219 -133.25535156 204.01398438 -133.38085938 204.76171875 C-135.95276873 220.99273218 -136.92872529 237.28917749 -136.88989258 253.70678711 C-136.8867074 256.50999052 -136.91042577 259.31215796 -136.93554688 262.11523438 C-136.97433706 273.12200914 -136.11148946 283.53757951 -133.96456909 294.33230591 C-133.38382139 297.27835988 -132.87948412 300.23736728 -132.36328125 303.1953125 C-130.29952662 314.41944088 -128.11731778 325.37461568 -124.32373047 336.15966797 C-123.45282937 338.66116825 -122.62553268 341.17560329 -121.796875 343.69140625 C-103.76568928 397.78496342 -70.88926053 453.99392746 -18.35546875 480.58129883 C4.08779229 491.44463 29.44325589 492.96330876 53.05078125 484.8125 C73.37477021 477.8247973 86.96746842 480.28586824 106.83300781 487.46459961 C129.87864548 495.00108733 158.35550443 488.42024538 179.60449219 478.27197266 C192.96324139 471.48049666 205.07173998 462.86150012 215.9765625 452.609375 C218.09637969 450.62141246 220.26222655 448.74115364 222.48828125 446.875 C250.8676008 422.00000938 273.0536399 382.98980619 284.42578125 347.3125 C284.42578125 346.3225 284.42578125 345.3325 284.42578125 344.3125 C282.75902344 344.25642578 282.75902344 344.25642578 281.05859375 344.19921875 C266.65265571 343.61228014 254.13671494 341.33231829 243.0625 331.13671875 C238.54135314 326.20688065 233.861094 320.5573611 231.69140625 314.140625 C230.83867257 311.75645125 230.14113898 310.18976649 228.42578125 308.3125 C225.29078539 307.20894542 222.21644779 306.65037914 218.9453125 306.0703125 C207.42038732 303.58880808 198.16762752 296.71105798 191.67578125 287.0625 C183.97571223 274.07634241 182.30640841 261.23200041 185.890625 246.5234375 C186.54824658 243.80654832 186.98691748 241.07220191 187.42578125 238.3125 C186.78511719 237.9 186.14445312 237.4875 185.484375 237.0625 C174.31571182 229.60562801 166.96140524 220.82532699 163.82495117 207.52539062 C161.7205065 195.85891572 162.32611297 183.61244618 168.42578125 173.3125 C168.94527344 172.42175781 169.46476562 171.53101563 170 170.61328125 C174.14505332 164.14931698 174.14505332 164.14931698 177.65722656 161.85449219 C182.55770496 158.76887567 182.55770496 158.76887567 185.07324219 153.80639648 C185.13220417 150.8916573 184.95242045 148.08936942 184.67578125 145.1875 C183.98837066 130.440685 187.58376815 120.69708027 197.42578125 109.3125 C198.08578125 108.9825 198.74578125 108.6525 199.42578125 108.3125 C199.42578125 107.6525 199.42578125 106.9925 199.42578125 106.3125 C195.01907419 106.23690993 190.61273565 106.18323912 186.20556641 106.14770508 C184.71428842 106.13285298 183.22305214 106.11256578 181.73193359 106.08618164 C167.93530681 105.84863 155.13122036 107.67530334 141.86328125 111.5625 C141.13625 111.76866943 140.40921875 111.97483887 139.66015625 112.18725586 C134.37611486 113.70132844 129.12883509 115.32870468 123.87988281 116.95947266 C95.68074177 125.69887587 95.68074177 125.69887587 81.42578125 126.3125 C80.13414062 126.42464844 80.13414062 126.42464844 78.81640625 126.5390625 C63.03549216 127.33228305 46.67114485 122.65074283 31.82324219 117.69384766 C24.80482969 115.36578162 17.70419102 113.43128552 10.55078125 111.5625 C9.44557129 111.26875488 8.34036133 110.97500977 7.20166016 110.67236328 C-5.66852572 107.34761334 -18.02998444 105.90033341 -31.32421875 105.9375 C-32.37687927 105.93781723 -32.37687927 105.93781723 -33.45080566 105.93814087 C-49.01622153 105.98489118 -62.41113723 108.46279539 -76.57421875 115.3125 Z " fill="#465055" transform="translate(179.57421875,0.6875)"/>
<path d="M0 0 C4.63067485 4.49447853 4.63067485 4.49447853 6.17578125 6.609375 C9.39099923 10.94942156 13.23298388 13.62986005 17.875 16.3125 C18.74016235 16.81873901 18.74016235 16.81873901 19.62280273 17.33520508 C26.78610731 21.30033728 33.91026448 22.28851187 42 22.625 C42.77472656 22.66367187 43.54945313 22.70234375 44.34765625 22.7421875 C46.23143415 22.83521357 48.11568256 22.91863175 50 23 C48.66990666 30.04589988 46.47043896 36.20797842 43.5625 42.75 C43.12147949 43.74862061 42.68045898 44.74724121 42.22607422 45.77612305 C30.76252358 71.37024624 16.45598582 94.92850592 -2.703125 115.515625 C-4.6795795 117.65342273 -6.56554656 119.833984 -8.4375 122.0625 C-28.57020802 145.04461681 -60.29808833 164.76025192 -91 168 C-107.11248407 168.84132472 -121.86969272 168.85635797 -137 163 C-155.12502277 156.3099857 -167.90693831 158.60970394 -185.6640625 165.15234375 C-207.40140612 172.94925122 -232.42736231 168.54381578 -252.875 159.1875 C-285.21608581 143.57049005 -307.92945017 115.51571796 -327 86 C-327.72582275 84.8855249 -327.72582275 84.8855249 -328.46630859 83.74853516 C-328.92473145 83.03358887 -329.3831543 82.31864258 -329.85546875 81.58203125 C-330.26821045 80.94112549 -330.68095215 80.30021973 -331.10620117 79.63989258 C-332 78 -332 78 -332 76 C-329.08300233 77.30480756 -327.20060053 78.64071666 -325.0625 81 C-312.0280877 94.33882533 -295.48950165 103.8899624 -278 110 C-276.94412186 110.36919556 -275.88824371 110.73839111 -274.80036926 111.11877441 C-261.60150896 115.0328223 -248.20723733 114.58909154 -234.55068564 114.53730202 C-230.98151752 114.52702317 -227.41238613 114.53660885 -223.84321594 114.54284668 C-217.85121159 114.55008337 -211.85940571 114.54064401 -205.86743164 114.52148438 C-198.9929269 114.49975314 -192.11889761 114.50675562 -185.24440449 114.52879 C-179.28965343 114.54709465 -173.33504335 114.54942884 -167.38027316 114.53903532 C-163.84693415 114.53287826 -160.31381653 114.53174369 -156.78049278 114.54518127 C-138.20199634 114.60628036 -120.21145133 114.07049918 -102.8125 106.8125 C-102.08530762 106.51843262 -101.35811523 106.22436523 -100.60888672 105.92138672 C-87.95205619 100.63650862 -76.69691109 93.56353837 -66 85 C-65.1234375 84.32710938 -64.246875 83.65421875 -63.34375 82.9609375 C-50.78094259 73.09543874 -39.80290874 61.56629144 -30.30615234 48.75048828 C-28.99336148 46.99110314 -27.65048581 45.25851821 -26.30078125 43.52734375 C-18.44262788 33.30795629 -12.19403872 22.28393295 -6 11 C-5.63406738 10.33726074 -5.26813477 9.67452148 -4.89111328 8.99169922 C-3.24191779 6.00443074 -1.60724325 3.01005643 0 0 Z " fill="#C03535" transform="translate(414,322)"/>
<path d="M0 0 C16.96632933 0.60594033 33.51277187 10.10596994 46 21 C46.60328125 21.50789063 47.2065625 22.01578125 47.828125 22.5390625 C57.82692985 31.650123 64.38941095 44.49644891 69 57 C69.32742187 57.85980469 69.65484375 58.71960938 69.9921875 59.60546875 C72.38232227 66.58238596 72.69382974 73.67302903 73 81 C67.8355709 80.42617454 63.23589058 79.24014882 58.375 77.375 C57.68204834 77.11066162 56.98909668 76.84632324 56.27514648 76.57397461 C45.84956917 72.48473992 36.55630638 67.23114229 28 60 C27.00419922 59.23816406 27.00419922 59.23816406 25.98828125 58.4609375 C12.13652052 47.41218533 5.0763176 30.61703886 1.76171875 13.7109375 C1.20742902 10.19966085 1.20742902 10.19966085 0 8 C-0.13415472 5.3276379 -0.04318541 2.67749512 0 0 Z " fill="#7FBD5E" transform="translate(171,22)"/>
<path d="M0 0 C1.09501831 -0.02682861 1.09501831 -0.02682861 2.2121582 -0.05419922 C7.80726677 -0.04517797 11.0162419 1.21611287 15 5.0625 C16.71618326 8.31421564 16.56912088 10.68710162 16.1875 14.3125 C14.53610695 17.8511994 13.47144771 19.12320153 10.1875 21.3125 C8.30908203 21.65966797 8.30908203 21.65966797 6.1953125 21.8046875 C5.41406006 21.86744873 4.63280762 21.93020996 3.82788086 21.99487305 C2.99780518 22.05843994 2.16772949 22.12200684 1.3125 22.1875 C-13.27709414 23.55092328 -25.21308357 27.02880975 -35.5 38 C-40.36919784 43.90519738 -44.01279782 50.70433796 -47.41796875 57.53125 C-48.987832 60.66218174 -49.88093544 62.35812363 -52.8125 64.3125 C-57.81303785 65.2193772 -61.54614243 65.07231454 -65.9375 62.4375 C-68.72188607 57.79685655 -68.97283706 54.59102753 -67.8125 49.3125 C-64.27184778 39.59801071 -58.78303525 30.91298539 -51.8125 23.3125 C-51.18730469 22.60738281 -50.56210938 21.90226562 -49.91796875 21.17578125 C-36.90434124 7.26100641 -18.7415788 0.31378292 0 0 Z " fill="#FAF8F8" transform="translate(143.8125,127.6875)"/>
<path d="M0 0 C16.96632933 0.60594033 33.51277187 10.10596994 46 21 C46.60328125 21.50789063 47.2065625 22.01578125 47.828125 22.5390625 C52.06869375 26.40313215 55.26601734 30.98214518 58.5 35.6875 C58.95826172 36.34177979 59.41652344 36.99605957 59.88867188 37.67016602 C63.09043541 42.47959471 63.09043541 42.47959471 62.61523438 45.21411133 C62.31069336 46.09812622 62.31069336 46.09812622 62 47 C60.948125 45.80503906 60.948125 45.80503906 59.875 44.5859375 C48.99179137 32.36112186 37.64709808 23.82154205 21 21 C24.35885078 38.31893321 24.35885078 38.31893321 32 54 C32.50273437 54.74636719 33.00546875 55.49273437 33.5234375 56.26171875 C37.86114758 62.25916296 43.06910995 66.6204494 49 71 C46 72 46 72 43.5390625 70.953125 C25.86687738 60.6246093 10.13467347 46.01073924 4.33154297 25.65527344 C3.33939912 21.67255824 2.49946857 17.67106251 1.7265625 13.640625 C1.20376992 10.18794355 1.20376992 10.18794355 0 8 C-0.13415472 5.3276379 -0.04318541 2.67749512 0 0 Z " fill="#98C97E" transform="translate(171,22)"/>
</svg>
